<?xml version="1.0" encoding="UTF-8" standalone="no"?>
<!DOCTYPE svg PUBLIC "-//W3C//DTD SVG 1.1//EN"
 "http://www.w3.org/Graphics/SVG/1.1/DTD/svg11.dtd">
<!-- Generated by graphviz version 2.43.0 (0)
 -->
<!-- Title: G Pages: 1 -->
<svg width="276pt" height="216pt"
 viewBox="0.00 0.00 275.81 216.41" xmlns="http://www.w3.org/2000/svg" xmlns:xlink="http://www.w3.org/1999/xlink">
<g id="graph0" class="graph" transform="scale(1 1) rotate(0) translate(4 212.41)">
<title>G</title><style>.edge>path:hover{stroke-width:8}</style>
<polygon fill="white" stroke="transparent" points="-4,4 -4,-212.41 271.81,-212.41 271.81,4 -4,4"/>
<!-- anki_repository_v2 -->
<g id="node1" class="node">
<title>anki_repository_v2</title><style>.edge>path:hover{stroke-width:8}</style>
<ellipse fill="#ac4949" stroke="black" cx="133.9" cy="-18" rx="64.51" ry="18"/>
<text text-anchor="middle" x="133.9" y="-15.5" font-family="Helvetica,sans-Serif" font-size="10.00" fill="#ffffff">anki_repository_v2</text>
</g>
<!-- anki_repository_v2_gui -->
<g id="node2" class="node">
<title>anki_repository_v2_gui</title><style>.edge>path:hover{stroke-width:8}</style>
<ellipse fill="#c24747" stroke="black" cx="79.9" cy="-93.21" rx="79.81" ry="21.43"/>
<text text-anchor="middle" x="79.9" y="-96.21" font-family="Helvetica,sans-Serif" font-size="10.00" fill="#ffffff">anki_repository_v2.</text>
<text text-anchor="middle" x="79.9" y="-85.21" font-family="Helvetica,sans-Serif" font-size="10.00" fill="#ffffff">gui</text>
</g>
<!-- anki_repository_v2_gui&#45;&gt;anki_repository_v2 -->
<g id="edge1" class="edge">
<title>anki_repository_v2_gui&#45;&gt;anki_repository_v2</title><style>.edge>path:hover{stroke-width:8}</style>
<path fill="none" stroke="black" d="M94.66,-72.21C101.07,-63.52 108.64,-53.25 115.42,-44.06"/>
<polygon fill="#c24747" stroke="black" points="118.24,-46.13 121.36,-36 112.61,-41.97 118.24,-46.13"/>
</g>
<!-- anki_repository_v2_gui_settings_dialog -->
<g id="node3" class="node">
<title>anki_repository_v2_gui_settings_dialog</title><style>.edge>path:hover{stroke-width:8}</style>
<ellipse fill="#c24747" stroke="black" cx="187.9" cy="-179.42" rx="79.81" ry="28.98"/>
<text text-anchor="middle" x="187.9" y="-187.92" font-family="Helvetica,sans-Serif" font-size="10.00" fill="#ffffff">anki_repository_v2.</text>
<text text-anchor="middle" x="187.9" y="-176.92" font-family="Helvetica,sans-Serif" font-size="10.00" fill="#ffffff">gui.</text>
<text text-anchor="middle" x="187.9" y="-165.92" font-family="Helvetica,sans-Serif" font-size="10.00" fill="#ffffff">settings_dialog</text>
</g>
<!-- anki_repository_v2_gui_settings_dialog&#45;&gt;anki_repository_v2 -->
<g id="edge2" class="edge">
<title>anki_repository_v2_gui_settings_dialog&#45;&gt;anki_repository_v2</title><style>.edge>path:hover{stroke-width:8}</style>
<path fill="none" stroke="black" d="M185.98,-150C183.76,-128.05 179,-97.27 168.9,-72 165.02,-62.27 159.19,-52.47 153.41,-43.98"/>
<polygon fill="#c24747" stroke="black" points="156.13,-41.77 147.48,-35.67 150.44,-45.84 156.13,-41.77"/>
</g>
</g>
</svg>
